<svg id="Ebene_1" data-name="Ebene 1" xmlns="http://www.w3.org/2000/svg" viewBox="0 0 1000 1000"><g id="Ebene_2" data-name="Ebene 2"><path d="M858.3,1000H141.7A141.78,141.78,0,0,1,0,858.3V141.7A141.78,141.78,0,0,1,141.7,0H858.2C936.5,0,1000,63.5,1000,141.7V858.2C1000,936.5,936.5,1000,858.3,1000Z" transform="translate(0 0)" style="fill:#dbdbdb"/></g><path d="M357,394l-22.34,7.46L309.43,255.93a11.67,11.67,0,0,1,7.81-13.06h0A11.65,11.65,0,0,1,332,250.24a11.44,11.44,0,0,1,.43,1.7Z" transform="translate(0 0)" style="fill:#97bf04"/><path d="M320.47,252.32a11.63,11.63,0,0,1,2.84-9.79,11.59,11.59,0,0,0-6.07.34h0a11.68,11.68,0,0,0-7.81,13.06l25.24,145.53,11-3.67Z" transform="translate(0 0)" style="fill:#8fa63f"/><path d="M367.49,371.88l-19.41,5-9.56-146.34c-.38-5.71,2.85-10.84,7.6-12.07h0c5.9-1.51,11.58,3.5,12,10.57Z" transform="translate(0 0)" style="fill:#97bf04"/><path d="M355,375.08,345.4,228.73a12.19,12.19,0,0,1,4.29-10.41,8.43,8.43,0,0,0-3.57.14h0c-4.75,1.22-8,6.36-7.6,12.07l9.56,146.34,19.41-5h0Z" transform="translate(0 0)" style="fill:#8fa63f"/><path d="M428,372.76l-21.25.92,16.61-145.81c.66-5.7,5-10.07,10.16-10.3h0c6.42-.28,11.48,5.81,10.68,12.85Z" transform="translate(0 0)" style="fill:#97bf04"/><path d="M414.29,373.33l16.6-145.81a11.75,11.75,0,0,1,6.39-9.36,9.82,9.82,0,0,0-3.76-.59h0c-5.19.23-9.51,4.59-10.16,10.3L406.75,373.68l21.23-.92h0Z" transform="translate(0 0)" style="fill:#8fa63f"/><path d="M395.09,372.89l-19.46,1.71,5.43-147.08c.21-5.74,3.88-10.3,8.63-10.72h0c5.9-.52,10.95,5.41,10.68,12.52Z" transform="translate(0 0)" style="fill:#97bf04"/><path d="M390.37,216.83h0c-4.76.42-8.43,5-8.64,10.71l-5.42,147.09,6-.54V374h-.08l5.43-147.08c.16-4.43,2.38-8.14,5.58-9.83A8.24,8.24,0,0,0,390.37,216.83Z" transform="translate(0 0)" style="fill:#8fa63f"/><path d="M409.92,408.39l-21.37,1.71,11.56-154.74c.45-6,4.65-10.81,9.88-11.23h0c6.46-.52,11.79,5.74,11.22,13.21Z" transform="translate(0 0)" style="fill:#97bf04"/><path d="M409.37,254.71a12.64,12.64,0,0,1,5.4-9.69,9.1,9.1,0,0,0-4.76-.89h0c-5.25.42-9.43,5.19-9.88,11.23L388.55,410.1l9.24-.74Z" transform="translate(0 0)" style="fill:#8fa63f"/><path d="M375.42,388.29l-19.78,2,6-123.85a9.83,9.83,0,0,1,8.82-9.27h0A9.83,9.83,0,0,1,381.21,266a9.32,9.32,0,0,1,0,1.4Z" transform="translate(0 0)" style="fill:#97bf04"/><path d="M361.94,389.57l-1.07.11,6-123.85a9.83,9.83,0,0,1,6-8.57,10.57,10.57,0,0,0-2.45-.05h0a9.82,9.82,0,0,0-8.82,9.27l-6,123.85,6.32-.65S361.94,389.6,361.94,389.57Z" transform="translate(0 0)" style="fill:#8fa63f"/><path d="M460,438c3.05,104.36-46.77,345.27-86.1,345.27S283.13,542.27,287,438c3.16-86.58,47.56-74.9,86.9-74.9S457.57,356.7,460,438Z" transform="translate(0 0)" style="fill:#f27f1b"/><path d="M315.61,456.11c3.18-86.58,47.56-74.9,86.9-74.9,14.78,0,30.27-.9,44,2.29-16.29-26.41-46.46-23.26-74.12-23.26-39.32,0-83.72-11.68-86.9,74.9-3.82,104.31,47.56,345.27,86.9,345.27a12.68,12.68,0,0,0,7-2.39C345.7,715,312.51,540.67,315.61,456.11Z" transform="translate(0 0)" style="fill:#ff7004"/><path d="M520.58,435.58s-56.24-73.5,1.88-73.5,100.39,31.31,100.39,31.31,4,11.14-10.56,15.39-70-37.68-82.56-23.89S569.91,437,569.91,437l-23,21.14Z" transform="translate(0 0)" style="fill:#667302"/><path d="M391.35,520.48c0,72.33,94.68,234,128.15,234S532,665,532,592.7s-25.75-154.07-59.22-154.07S391.35,448.15,391.35,520.48Z" transform="translate(0 0)" style="fill:#f23005"/><path d="M714.73,522.41c0,72.32-94.67,234-128.15,234S574.09,667,574.09,594.63s25.75-154.07,59.22-154.07S714.73,450.08,714.73,522.41Z" transform="translate(0 0)" style="fill:#f23005"/><path d="M654.11,483.63C654.11,584.44,618,776.89,554,776.89s-99.7-192.48-99.7-293.26,35-53.59,99-53.59S654.11,382.8,654.11,483.63Z" transform="translate(0 0)" style="fill:#f23005"/><path d="M455.19,483.63c0-20.18,1.41-34.42,4.16-44.3-31.31,3.1-67.08,18.71-67.08,81.18,0,71.06,91.39,228.35,126.33,233.84C477.52,700.57,455.19,563.39,455.19,483.63Z" transform="translate(0 0)" style="fill:#a60311"/></svg>