<svg id="Ebene_1" data-name="Ebene 1" xmlns="http://www.w3.org/2000/svg" viewBox="0 0 1000 1000"><g id="Ebene_2" data-name="Ebene 2"><path d="M858.3,1000H141.7A141.78,141.78,0,0,1,0,858.3V141.7A141.78,141.78,0,0,1,141.7,0H858.2C936.5,0,1000,63.5,1000,141.7V858.2C1000,936.5,936.5,1000,858.3,1000Z" transform="translate(0 0)" style="fill:#dbdbdb"/></g><path d="M573.27,217.47c-138,0-250,126.56-250,282.68h-25c-59,0-108.4,46.21-121.55,108.31v66c13.15,62.15,62.57,108.34,121.55,108.34h275c138.05,0,250-126.57,250-282.69S711.32,217.47,573.27,217.47Z" transform="translate(0 0)" style="fill:#c96;stroke:#fff;stroke-miterlimit:10"/><path d="M594.05,217.16H544.53C420.58,230.54,323.79,343.22,323.79,480.25H299.25c-65.07,0-118.31,54.53-122.49,123.48v17.49c4.18,68.9,57.41,123.46,122.49,123.46h270c135.59,0,245.51-118.38,245.51-264.41C814.8,343.22,718,230.54,594.05,217.16Z" transform="translate(0 0)" style="fill:#f4ccc9"/><path d="M802.66,473.71c0-129.48-102.5-234.44-228.94-234.44s-229,105-229,234.44q0,7.21.42,14.31c.6,10-7.05,18.4-16.72,18.4H286.62c-53,0-95.89,44.37-95.89,99.11V609c0,54.73,42.93,99.1,95.89,99.1H598a76.48,76.48,0,0,0,31.53-6.8,16.8,16.8,0,0,1,2.44-.85C730.2,674.11,802.66,582.58,802.66,473.71Z" transform="translate(0 0)" style="fill:#bf2a37"/><path d="M330.47,493s265.4,12.54,236.87,242.61" transform="translate(0 0)" style="fill:none;stroke:#f4ccc9;stroke-miterlimit:10;stroke-width:31px"/><line x1="778.93" y1="358.68" x2="499.34" y2="550.58" style="fill:none;stroke:#f4ccc9;stroke-miterlimit:10;stroke-width:31px"/><path d="M560.53,510.24s-54.66,24.67-34.29,69.23" transform="translate(0 0)" style="fill:none;stroke:#f4ccc9;stroke-miterlimit:10;stroke-width:28px"/><path d="M434.45,515.14s72.3,34.35,157.73-27.8" transform="translate(0 0)" style="fill:none;stroke:#f4ccc9;stroke-miterlimit:10;stroke-width:26px"/><ellipse cx="313.12" cy="612.73" rx="55.39" ry="49.06" style="fill:#f4ccc9"/></svg>