<svg id="Ebene_1" data-name="Ebene 1" xmlns="http://www.w3.org/2000/svg" viewBox="0 0 1000 1000"><g id="Ebene_2" data-name="Ebene 2"><path d="M858.3,1000H141.7A141.78,141.78,0,0,1,0,858.3V141.7A141.78,141.78,0,0,1,141.7,0H858.2C936.5,0,1000,63.5,1000,141.7V858.2C1000,936.5,936.5,1000,858.3,1000Z" transform="translate(0 0)" style="fill:#dbdbdb"/></g><rect x="309.4" y="338.29" width="228.93" height="444.4" style="fill:#bdbebf"/><path d="M689.89,782.3H538v-444l80.77-102.48c.09-.13,10.51,15,10.58,15.12l60.56,87.36Z" transform="translate(0 0)" style="fill:#d0cfd1"/><polyline points="538.57 338.71 689.84 337.95 575.45 290.31" style="fill:#a3a7ab"/><path d="M309.76,338.33l228.81.38,80.18-102.86a.06.06,0,0,0,0-.08h0l-211.65-.67Z" transform="translate(0 0)" style="fill:#cacbcc"/><polygon points="618.75 236.23 406.31 235.47 406.31 217.32 618.75 217.32 618.75 236.23" style="fill:#8e8f8f"/><rect x="309.76" y="457.08" width="228.23" height="161.1" style="fill:#5f80c6"/><rect x="537.98" y="457.08" width="152.62" height="161.1" style="fill:#6e92d3"/><polygon points="575.63 291.06 689.84 338.71 618.75 235.85 575.63 291.06" style="fill:#848a8f"/><rect x="349.49" y="545.95" width="158.08" height="37.82" style="fill:#f2f2f2"/><rect x="349.49" y="489.22" width="158.08" height="37.82" style="fill:#f2f2f2"/></svg>