<svg id="Ebene_1" data-name="Ebene 1" xmlns="http://www.w3.org/2000/svg" viewBox="0 0 1000 1000"><g id="Ebene_2" data-name="Ebene 2"><path d="M858.3,1000H141.7A141.78,141.78,0,0,1,0,858.3V141.7A141.78,141.78,0,0,1,141.7,0H858.2C936.5,0,1000,63.5,1000,141.7V858.2C1000,936.5,936.5,1000,858.3,1000Z" transform="translate(0 0)" style="fill:#dbdbdb"/></g><path d="M425.49,281.62h-.39v-25.8l-93.18.08v25.8h-.39C313.17,281.7,267,407.54,267,425.9l.27,319.33a33.25,33.25,0,0,0,33.27,33.22l154.54-.14a33.23,33.23,0,0,0,33.21-33.25v0L488,425.63C488,407.3,442.82,285.8,425.49,281.62Z" transform="translate(0 0)" style="fill:#8fbabf"/><rect x="268.2" y="454.51" width="219.48" height="153.25" style="fill:#011c40"/><rect x="316.33" y="221.55" width="123.99" height="54.68" rx="16.04" style="fill:#595959"/><path d="M682.32,776.81H569.66a17.56,17.56,0,0,1-17.5-16.07L521.82,405.83a15.11,15.11,0,0,1,13.76-16.34c.42,0,.85-.05,1.28-.05H717.93A15.11,15.11,0,0,1,733,404.55c0,.47,0,.93-.06,1.4L699.8,760.88A17.56,17.56,0,0,1,682.32,776.81Z" transform="translate(0 0)" style="fill:#d9d7d7"/><path d="M680.42,481.94c-60,2.22-41.65-18-83.31-24-24.31-3.51-47.65,1.68-62.89,6.61l23.51,292c.71,8.85,7.7,15.65,16,15.65H677.05c8.31,0,15.26-6.72,16-15.51l24.48-278.4A285.28,285.28,0,0,1,680.42,481.94Z" transform="translate(0 0)" style="fill:#8fbabf"/></svg>