<svg xmlns="http://www.w3.org/2000/svg" viewBox="0 0 1000 1000"><g id="Ebene_2" data-name="Ebene 2"><rect width="1000" height="1000" rx="141.73" style="fill:#dbdbdb"/></g><g id="Ebene_1" data-name="Ebene 1"><rect x="352.64" y="216.12" width="296.08" height="567.76" style="fill:#562806"/><rect x="352.64" y="521.56" width="296.08" height="262.32" style="fill:#af5214"/><rect x="372.23" y="537.57" width="256.91" height="228.87" style="fill:#ce6925"/><path d="M624.63,542.07V761.93H376.73V542.07h247.9m9-9H367.72V770.94H633.65Z" style="fill:#dd8024"/><rect x="363.2" y="485.28" width="56.74" height="73.64" style="fill:#593116"/><path d="M415.42,489.79v64.62H367.71V489.79h47.71m9-9H358.69v82.64h65.74Z" style="fill:#754c24"/><polygon points="358.69 480.78 369.25 490.45 369.65 553.37 413.9 553.75 424.45 563.42 358.69 563.42 358.69 480.78" style="fill:#49290f"/><rect x="436.34" y="485.28" width="56.74" height="73.64" style="fill:#593116"/><path d="M488.59,489.79v64.62H440.85V489.79h47.74m9-9H431.84v82.64H497.6Z" style="fill:#754c24"/><polygon points="431.84 480.78 442.39 490.45 442.8 553.37 487.04 553.75 497.6 563.42 431.84 563.42 431.84 480.78" style="fill:#49290f"/><rect x="510.23" y="485.28" width="56.74" height="73.64" style="fill:#593116"/><path d="M562.46,489.79v64.62H514.73V489.79h47.73m9-9H505.72v82.64h65.76Z" style="fill:#754c24"/><polygon points="505.72 480.78 516.27 490.45 516.68 553.37 560.92 553.75 571.48 563.42 505.72 563.42 505.72 480.78" style="fill:#49290f"/><rect x="582.64" y="485.28" width="56.74" height="73.64" style="fill:#593116"/><path d="M634.87,489.79v64.62H587.14V489.79h47.73m9-9H578.13v82.64h65.75Z" style="fill:#754c24"/><polygon points="578.13 480.78 588.68 490.45 589.08 553.37 633.33 553.75 643.88 563.42 578.13 563.42 578.13 480.78" style="fill:#49290f"/><polygon points="357.09 485.98 341.33 519.76 349.04 553.55 382.96 553.9 434.54 577.98 474.12 550.31 513.18 568.99 529.63 553.9 592 578.34 618.73 552.46 658.66 567.92 649.75 497.48 626.96 521.56 575.05 498.92 507.02 516.53 476.86 497.84 455.62 522.28 427.69 513.3 398.9 493.17 377.65 504.67 357.09 485.98" style="fill:#c1bfbd;stroke:#c1c0bf;stroke-miterlimit:10;stroke-width:15px"/><polygon points="389.77 554.07 428.04 573.43 468.18 550.36 424.43 560.31 389.77 554.07" style="fill:#adadad"/><polygon points="517.54 517.97 573.28 501.36 621.88 519.24 573.48 512.48 517.54 517.97" style="fill:#adadad"/><polygon points="598.82 567.56 618.73 552.46 654.23 567.56 628.94 531.2 598.82 567.56" style="fill:#adadad"/><polygon points="343.92 537.37 341.33 519.76 356.5 486.13 348.87 520.8 348.87 554.07 343.92 537.37" style="fill:#adadad"/><polygon points="380.07 502.08 398.9 493.17 427.69 513.3 399.48 500 380.07 502.08" style="fill:#adadad"/><rect x="363.2" y="224.4" width="56.74" height="73.64" style="fill:#593116"/><path d="M415.42,228.9v64.63H367.71V228.9h47.71m9-9H358.69v82.65h65.74Z" style="fill:#754c24"/><polygon points="358.69 219.89 369.25 229.57 369.65 292.49 413.9 292.86 424.45 302.54 358.69 302.54 358.69 219.89" style="fill:#49290f"/><rect x="436.34" y="224.4" width="56.74" height="73.64" style="fill:#593116"/><path d="M488.59,228.9v64.63H440.85V228.9h47.74m9-9H431.84v82.65H497.6Z" style="fill:#754c24"/><polygon points="431.84 219.89 442.39 229.57 442.8 292.49 487.04 292.86 497.6 302.54 431.84 302.54 431.84 219.89" style="fill:#49290f"/><rect x="510.23" y="224.4" width="56.74" height="73.64" style="fill:#593116"/><path d="M562.46,228.9v64.63H514.73V228.9h47.73m9-9H505.72v82.65h65.76Z" style="fill:#754c24"/><polygon points="505.72 219.89 516.27 229.57 516.68 292.49 560.92 292.86 571.48 302.54 505.72 302.54 505.72 219.89" style="fill:#49290f"/><rect x="582.64" y="224.4" width="56.74" height="73.64" style="fill:#593116"/><path d="M634.87,228.9v64.63H587.14V228.9h47.73m9-9H578.13v82.65h65.75Z" style="fill:#754c24"/><polygon points="578.13 219.89 588.68 229.57 589.08 292.49 633.33 292.86 643.88 302.54 578.13 302.54 578.13 219.89" style="fill:#49290f"/><rect x="363.94" y="311.36" width="56.74" height="73.64" style="fill:#593116"/><path d="M416.18,315.86v64.63H368.45V315.86h47.73m9-9H359.44V389.5h65.75Z" style="fill:#754c24"/><polygon points="359.44 306.85 369.99 316.54 370.4 379.45 414.64 379.82 425.19 389.5 359.44 389.5 359.44 306.85" style="fill:#49290f"/><rect x="437.09" y="311.36" width="56.74" height="73.64" style="fill:#593116"/><path d="M489.32,315.86v64.63H441.59V315.86h47.73m9-9H432.58V389.5h65.75Z" style="fill:#754c24"/><polygon points="432.58 306.85 443.13 316.54 443.54 379.45 487.78 379.82 498.33 389.5 432.58 389.5 432.58 306.85" style="fill:#49290f"/><rect x="510.97" y="311.36" width="56.74" height="73.64" style="fill:#593116"/><path d="M563.21,315.86v64.63H515.48V315.86h47.73m9-9H506.46V389.5h65.76Z" style="fill:#754c24"/><polygon points="506.46 306.85 517.01 316.54 517.42 379.45 561.67 379.82 572.22 389.5 506.46 389.5 506.46 306.85" style="fill:#49290f"/><rect x="583.37" y="311.36" width="56.74" height="73.64" style="fill:#593116"/><path d="M635.61,315.86v64.63H587.88V315.86h47.73m9-9H578.87V389.5h65.76Z" style="fill:#754c24"/><polygon points="578.87 306.85 589.42 316.54 589.83 379.45 634.07 379.82 644.63 389.5 578.87 389.5 578.87 306.85" style="fill:#49290f"/><rect x="363.2" y="398.32" width="56.74" height="73.64" style="fill:#593116"/><path d="M415.42,402.83v64.62H367.71V402.83h47.71m9-9H358.69v82.64h65.74Z" style="fill:#754c24"/><polygon points="358.69 393.82 369.25 403.5 369.65 466.41 413.9 466.78 424.45 476.46 358.69 476.46 358.69 393.82" style="fill:#49290f"/><rect x="436.34" y="398.32" width="56.74" height="73.64" style="fill:#593116"/><path d="M488.59,402.83v64.62H440.85V402.83h47.74m9-9H431.84v82.64H497.6Z" style="fill:#754c24"/><polygon points="431.84 393.82 442.39 403.5 442.8 466.41 487.04 466.78 497.6 476.46 431.84 476.46 431.84 393.82" style="fill:#49290f"/><rect x="510.23" y="398.32" width="56.74" height="73.64" style="fill:#593116"/><path d="M562.46,402.83v64.62H514.73V402.83h47.73m9-9H505.72v82.64h65.76Z" style="fill:#754c24"/><polygon points="505.72 393.82 516.27 403.5 516.68 466.41 560.92 466.78 571.48 476.46 505.72 476.46 505.72 393.82" style="fill:#49290f"/><rect x="582.64" y="398.32" width="56.74" height="73.64" style="fill:#593116"/><path d="M634.87,402.83v64.62H587.14V402.83h47.73m9-9H578.13v82.64h65.75Z" style="fill:#754c24"/><polygon points="578.13 393.82 588.68 403.5 589.08 466.41 633.33 466.78 643.88 476.46 578.13 476.46 578.13 393.82" style="fill:#49290f"/><polyline points="550.6 556.85 592.2 578.34 618.73 552.46" style="fill:#adadad"/></g></svg>