<svg id="Ebene_1" data-name="Ebene 1" xmlns="http://www.w3.org/2000/svg" viewBox="0 0 1500 1500"><path d="M728.29,36.72C548.72,36.72,393.73,141.9,321.53,294c-62.86,109-103.77,286.37-103.77,486.7q0,9.76.14,19.45c2.86,215.89,53.25,403,126.88,503,38.45,74,142.89,134.59,280,165.25a400.22,400.22,0,0,0,45.84-446.33,400.46,400.46,0,0,0-69.43-103.6q-12.75-13.78-26.76-26.34-3.75-3.37-7.6-6.65-12.09-10.31-25-19.66A299.24,299.24,0,0,1,439.43,640.13c0-132.39,85.75-244.74,204.74-284.55-.24-.59-.49-1.18-.74-1.76a299.46,299.46,0,0,1,92.43-14.54c165.68,0,300,134.32,300,300,0,136.74-91.48,252.09-216.57,288.24,204.9-42.09,359-223.44,359-440.8C1178.29,238.2,976.81,36.72,728.29,36.72Z" style="fill:#648c37"/><path d="M779.67,39.63c162.1,68.05,275.95,228.27,275.95,415.09a449.63,449.63,0,0,1-22.81,141.77,303.43,303.43,0,0,1,3,42.79c0,136.74-91.48,252.09-216.57,288.24,204.9-42.09,359-223.44,359-440.8C1178.29,255.57,1004,65.13,779.67,39.63Z" style="fill:none"/><path d="M520.76,321.82l.75,1.76c-119,39.81-204.75,152.16-204.75,284.55A299.28,299.28,0,0,0,419.18,833.87q12.9,9.35,25,19.66,3.84,3.27,7.6,6.65,14,12.54,26.75,26.34A400.5,400.5,0,0,1,548,990.12a400.25,400.25,0,0,1-41.57,441.13c35.56,15,75.36,27.58,118.39,37.2a400.22,400.22,0,0,0,45.84-446.33,400.46,400.46,0,0,0-69.43-103.6q-12.75-13.78-26.76-26.34-3.75-3.37-7.6-6.65-12.09-10.31-25-19.66A299.24,299.24,0,0,1,439.43,640.13c0-132.39,85.75-244.74,204.74-284.55-.24-.59-.49-1.18-.74-1.76a299.46,299.46,0,0,1,92.43-14.54c4.3,0,8.58.12,12.84.3a300.66,300.66,0,0,0-227.94-17.76Z" style="fill:none"/><path d="M779.67,39.63a454,454,0,0,0-51.38-2.91C548.72,36.72,393.73,141.9,321.53,294c-62.86,109-103.77,286.37-103.77,486.7q0,9.76.14,19.45c2.86,215.89,53.25,403,126.88,503,26.38,50.74,83.85,95.22,161.63,128A400.25,400.25,0,0,0,548,990.12a400.5,400.5,0,0,0-69.44-103.6q-12.75-13.78-26.75-26.34-3.77-3.37-7.6-6.65-12.1-10.31-25-19.66A299.28,299.28,0,0,1,316.76,608.13c0-132.39,85.76-244.74,204.75-284.55l-.75-1.76A300.66,300.66,0,0,1,748.7,339.58c145.35,6.12,263.93,115.64,284.11,256.91a449.63,449.63,0,0,0,22.81-141.77C1055.62,267.9,941.77,107.68,779.67,39.63Z" style="fill:#88b544"/><path d="M814.75,929a434,434,0,0,0-12.4,103.19c0,197,132.14,365.93,320.47,438.15a433.92,433.92,0,0,0,12.4-103.18C1135.22,1170.2,1003.08,1001.22,814.75,929Z" style="fill:#648c37"/><path d="M878.35,1004.18a435.88,435.88,0,0,1,2.3-44.75A546.09,546.09,0,0,0,814.75,929a434,434,0,0,0-12.4,103.19c0,197,132.14,365.93,320.47,438.15a433.7,433.7,0,0,0,10.1-58.44C980.39,1328.7,878.35,1177.24,878.35,1004.18Z" style="fill:#88b544"/></svg>