<?xml version="1.0" encoding="utf-8"?>
<!-- Generator: Adobe Illustrator 26.0.2, SVG Export Plug-In . SVG Version: 6.00 Build 0)  -->
<svg version="1.1" id="Ebene_1" xmlns="http://www.w3.org/2000/svg" xmlns:xlink="http://www.w3.org/1999/xlink" x="0px" y="0px"
	 viewBox="0 0 512 512" style="enable-background:new 0 0 512 512;" xml:space="preserve">
<g>
	<g>
		<path d="M485.7,198.5c-10.7-13.4-25.3-20.8-41.1-20.8h-36.1C405.1,85.1,338,11,256,11S106.9,85.1,103.5,177.7H67.4
			c-15.8,0-30.4,7.4-41.1,20.8C12.8,215.3,7.9,238.7,13,261.2L56.3,452c6.5,28.8,28.9,49,54.4,49h290.5c25.5,0,47.9-20.1,54.4-49
			L499,261.2C504.1,238.7,499.2,215.3,485.7,198.5L485.7,198.5z M256,51.8c59.6,0,108.4,55.8,111.6,125.9H144.4
			C147.6,107.7,196.4,51.8,256,51.8z M459.2,252.1L415.9,443c-2.2,9.8-8.5,17.2-14.6,17.2H110.7c-6.1,0-12.4-7.4-14.6-17.2
			L52.8,252.1c-2.3-10.1-3.7-33.6,14.6-33.6h377.2C464.3,218.5,461.5,242,459.2,252.1L459.2,252.1z"/>
	</g>
</g>
<path d="M259.4,263.4c-19,0-35.4,11.1-43.1,27.3c-6.7,11.5-11,30.3-11,51.6c0,0.7,0,1.4,0,2.1c0.3,22.9,5.6,42.7,13.4,53.3
	c4.1,7.8,15.1,14.3,29.7,17.5c11.1-13.3,13.1-32,4.9-47.3c-1.9-4-4.3-7.7-7.4-11c-0.9-1-1.8-1.9-2.8-2.8c-0.3-0.2-0.5-0.5-0.8-0.7
	c-0.9-0.7-1.7-1.4-2.6-2.1c-6.9-6-10.9-14.7-10.8-23.9c0-14,9.1-25.9,21.7-30.1c0-0.1-0.1-0.1-0.1-0.2c3.2-1,6.5-1.5,9.8-1.5
	c17.6,0,31.8,14.2,31.8,31.8c0,14.5-9.7,26.7-22.9,30.5c21.7-4.5,38-23.7,38-46.7C307,284.8,285.7,263.4,259.4,263.4z"/>
<path d="M264.8,263.7c17.2,7.2,29.2,24.2,29.2,44c0,5.1-0.8,10.2-2.4,15c0.2,1.5,0.3,3,0.3,4.5c0,14.5-9.7,26.7-22.9,30.5
	c21.7-4.5,38-23.7,38-46.7C307,286.6,288.6,266.4,264.8,263.7z"/>
<path d="M237.4,293.6l0.1,0.2c-12.6,4.2-21.7,16.1-21.7,30.1c0,9.2,3.9,17.9,10.8,23.9c0.9,0.7,1.8,1.4,2.6,2.1
	c0.3,0.2,0.5,0.5,0.8,0.7c1,0.9,1.9,1.8,2.8,2.8c3,3.3,5.5,7,7.4,11c8.1,15,6.3,33.5-4.4,46.7c3.8,1.6,8,2.9,12.5,3.9
	c11.1-13.3,13.1-32,4.9-47.3c-1.9-4-4.3-7.7-7.4-11c-0.9-1-1.8-1.9-2.8-2.8c-0.3-0.2-0.5-0.5-0.8-0.7c-0.9-0.7-1.7-1.4-2.6-2.1
	c-6.9-6-10.9-14.7-10.9-23.9c0-14,9.1-25.9,21.7-30.1c0-0.1-0.1-0.1-0.1-0.2c3.2-1,6.5-1.5,9.8-1.5c0.5,0,0.9,0,1.4,0
	C254,291.7,245.4,291,237.4,293.6L237.4,293.6z"/>
<path d="M264.8,263.7c-1.8-0.2-3.6-0.3-5.4-0.3c-19,0-35.4,11.1-43.1,27.3c-6.7,11.5-11,30.3-11,51.6c0,0.7,0,1.4,0,2.1
	c0.3,22.9,5.6,42.7,13.4,53.3c2.8,5.4,8.9,10.1,17.1,13.6c10.7-13.3,12.5-31.7,4.4-46.7c-1.9-4-4.3-7.7-7.4-11
	c-0.9-1-1.8-1.9-2.8-2.8c-0.3-0.2-0.5-0.5-0.8-0.7c-0.9-0.7-1.7-1.4-2.6-2.1c-6.9-6-10.9-14.7-10.9-23.9c0-14,9.1-25.9,21.7-30.1
	l-0.1-0.2c8-2.6,16.7-1.9,24.1,1.9c15.4,0.6,28,12.3,30.1,27.2c1.6-4.8,2.4-9.9,2.4-15C294,287.9,282,270.9,264.8,263.7z"/>
<path d="M268.5,357.9c-0.9,3.6-1.3,7.2-1.3,10.9c0,20.9,14,38.8,33.9,46.4c0.9-3.6,1.3-7.2,1.3-10.9
	C302.5,383.5,288.5,365.6,268.5,357.9z"/>
<path d="M275.3,365.9c0-1.6,0.1-3.2,0.2-4.7c-2.3-1.2-4.6-2.3-7-3.2c-0.9,3.6-1.3,7.2-1.3,10.9c0,20.9,14,38.8,33.9,46.4
	c0.5-2,0.9-4.1,1.1-6.2C286.1,400.3,275.3,384.2,275.3,365.9z"/>
</svg>
