<svg id="Ebene_1" data-name="Ebene 1" xmlns="http://www.w3.org/2000/svg" viewBox="0 0 1000 1000"><g id="Ebene_2" data-name="Ebene 2"><path d="M858.3,1000H141.7A141.78,141.78,0,0,1,0,858.3V141.7A141.78,141.78,0,0,1,141.7,0H858.2C936.5,0,1000,63.5,1000,141.7V858.2C1000,936.5,936.5,1000,858.3,1000Z" transform="translate(0 0)" style="fill:#dbdbdb"/></g><path d="M916.93,642.28c0,77.22-411.93,64-411.93,64s-421.93,13.24-421.93-64c0-133.27,79.8-220.44,169.58-276.36,68.43-42.6,141.73-66.58,215.64-71.9,95-6.85,191.09,17.12,279.06,71.9C837.13,421.86,916.93,509,916.93,642.28Z" transform="translate(0 0)" style="fill:#e38c00"/><path d="M267.18,358.17c20,1.89,38.43,14.26,52.3,28.15,41.12,41.82,52.86,113.52,25.36,165.6-5.84-13.21-9.72-26.43-14-40-3.86-12.32-7.59-24.84-11.47-37.13-12.84-40.92-29-80.28-52.15-116.67Z" transform="translate(0 0)" style="fill:#a36500"/><path d="M626.85,313.21c20.65,6.9,38,26,49.56,43.89,33.88,53.12,40.22,131,14.27,188.39-7-17.39-11.2-35.22-15.73-53.2-7.49-31.56-13.49-62.41-21-93.46-7.25-28.95-14.83-58.23-27.08-85.63Z" transform="translate(0 0)" style="fill:#a36500"/><path d="M436.31,299.3c12.42,2.78,23.62,9.36,33.83,16.76,20.33,15.14,36.39,35.76,48,58.21,25.48,49.78,31.23,109.49,16,163.28a173.65,173.65,0,0,1-6.33,17.58c-2.14-6-3.82-11.88-5.35-17.73-10.52-38.53-18.2-77.73-30.06-115.88C479.22,378.53,462,336.66,436.31,299.3Z" transform="translate(0 0)" style="fill:#a36500"/></svg>