<?xml version="1.0" encoding="utf-8"?>
<!-- Generator: Adobe Illustrator 26.0.2, SVG Export Plug-In . SVG Version: 6.00 Build 0)  -->
<svg version="1.1" id="Ebene_1" xmlns="http://www.w3.org/2000/svg" xmlns:xlink="http://www.w3.org/1999/xlink" x="0px" y="0px"
	 viewBox="0 0 1774.9 1774.9" style="enable-background:new 0 0 1774.9 1774.9;" xml:space="preserve">
<style type="text/css">
	.st0{fill:#FFFFFF;}
	.st1{fill:none;}
</style>
<path class="st0" d="M768.8,1679c-138.3,5.6-567.2-34.3-419.7-1046.5c247.8-889.7,856.9-454,915.1-413.6
	c434.2,443.6,58.2,773.8-131.9,844c329.1,122.9,333.7,630,190.1,621.5c-165.3-39.7-365.9-228.4-365.9-228.4S991.8,1657.6,768.8,1679
	z"/>
<path d="M917.7,170.6c-179.6,0-334.6,105.2-406.8,257.3c-62.9,109-103.8,286.4-103.8,486.7c0,6.5,0,13,0.1,19.5
	c2.9,215.9,53.3,403,126.9,503c38.5,74,142.9,134.6,280,165.2c105.1-125.4,123.2-302.2,45.8-446.3c-17.6-37.9-41-72.9-69.4-103.6
	c-8.5-9.2-17.4-18-26.8-26.3c-2.5-2.2-5-4.5-7.6-6.6c-8.1-6.9-16.4-13.4-25-19.7c-65.1-56.9-102.5-139.2-102.4-225.7
	c0-132.4,85.8-244.7,204.7-284.6c-0.2-0.6-0.5-1.2-0.7-1.8c29.9-9.7,61-14.6,92.4-14.5c165.7,0,300,134.3,300,300
	c0,136.7-91.5,252.1-216.6,288.2c204.9-42.1,359-223.4,359-440.8C1367.7,372.1,1166.2,170.6,917.7,170.6z"/>
<path class="st1" d="M1054.6,39.6c162.1,68.1,276,228.3,276,415.1c0,48.2-7.7,96-22.8,141.8c2,14.2,3,28.5,3,42.8
	c0,136.7-91.5,252.1-216.6,288.2c204.9-42.1,359-223.4,359-440.8C1453.2,255.6,1278.9,65.1,1054.6,39.6z"/>
<path class="st1" d="M710.2,455.7l0.8,1.8c-119,39.8-204.8,152.2-204.8,284.6c-0.1,86.5,37.3,168.8,102.4,225.7
	c8.6,6.2,16.9,12.8,25,19.7c2.6,2.2,5.1,4.4,7.6,6.7c9.3,8.4,18.2,17.1,26.8,26.3c28.4,30.7,51.9,65.7,69.5,103.6
	c76.2,142,59.8,315.9-41.6,441.1c35.6,15,75.4,27.6,118.4,37.2c105.1-125.4,123.2-302.2,45.8-446.3c-17.6-37.9-41-72.9-69.4-103.6
	c-8.5-9.2-17.4-18-26.8-26.3c-2.5-2.2-5-4.5-7.6-6.6c-8.1-6.9-16.4-13.4-25-19.7c-65.2-56.9-102.5-139.2-102.4-225.7
	c0-132.4,85.8-244.7,204.7-284.6c-0.2-0.6-0.5-1.2-0.7-1.8c29.9-9.7,61-14.6,92.4-14.5c4.3,0,8.6,0.1,12.8,0.3
	C867.5,437.8,785.5,431.4,710.2,455.7L710.2,455.7z"/>
<path d="M969.1,173.6c-17.1-1.9-34.2-2.9-51.4-2.9c-179.6,0-334.6,105.2-406.8,257.3c-62.9,109-103.8,286.4-103.8,486.7
	c0,6.5,0,13,0.1,19.5c2.9,215.9,53.3,403,126.9,503c26.4,50.7,83.9,95.2,161.6,128c101.4-125.2,117.8-299,41.6-441
	c-17.6-37.9-41-72.9-69.4-103.6c-8.5-9.2-17.4-18-26.8-26.3c-2.5-2.2-5-4.5-7.6-6.7c-8.1-6.9-16.4-13.4-25-19.7
	c-65.2-56.9-102.5-139.2-102.4-225.7c0-132.4,85.8-244.7,204.8-284.6l-0.8-1.8c75.4-24.3,157.3-17.9,227.9,17.8
	c145.3,6.1,263.9,115.6,284.1,256.9c15.1-45.7,22.9-93.6,22.8-141.8C1245.1,401.8,1131.2,241.6,969.1,173.6z"/>
<path d="M1004.2,1062.9c-8.3,33.8-12.4,68.4-12.4,103.2c0,197,132.1,365.9,320.5,438.2c8.3-33.8,12.4-68.4,12.4-103.2
	C1324.7,1304.1,1192.5,1135.1,1004.2,1062.9z"/>
<path d="M1067.8,1138.1c0-14.9,0.8-29.9,2.3-44.8c-21.3-11.6-43.3-21.8-65.9-30.4c-8.3,33.8-12.4,68.4-12.4,103.2
	c0,197,132.1,365.9,320.5,438.2c4.7-19.2,8.1-38.8,10.1-58.4C1169.8,1462.6,1067.8,1311.2,1067.8,1138.1z"/>
</svg>
